<svg width="33" height="35" viewBox="0 0 33 35" fill="none" xmlns="http://www.w3.org/2000/svg">
<g filter="url(#filter0_d_2_152)">
<path fill-rule="evenodd" clip-rule="evenodd" d="M10.989 5.66974C8.0029 7.14722 5.57606 8.37182 5.59603 8.39101C5.61601 8.4102 6.58304 8.89353 7.74502 9.46512L9.85771 10.5043L15.2835 7.72439C18.2676 6.19549 20.7087 4.93236 20.7081 4.91753C20.7075 4.90275 19.8476 4.46978 18.7971 3.95543C17.256 3.20083 16.842 3.0167 16.6528 3.00183C16.4238 2.98385 16.2899 3.04697 10.989 5.66974ZM17.3263 8.72774C12.8685 11.0112 11.917 11.5149 11.9802 11.5584C12.0225 11.5875 13.0871 12.1189 14.346 12.7393L16.6351 13.8672L19.9032 12.2472C21.7006 11.3562 24.1948 10.1205 25.4457 9.50125L27.7201 8.37529L25.2641 7.16082C23.9133 6.4929 22.7949 5.94721 22.7786 5.94819C22.7625 5.94918 20.3089 7.19996 17.3263 8.72774ZM4.62511 15.4085C4.62609 20.5937 4.63013 20.8537 4.71271 21.0328C4.76031 21.136 4.84955 21.266 4.91098 21.3217C4.97242 21.3773 7.41788 22.6729 10.3453 24.2008C13.2728 25.7286 15.6838 26.9883 15.7031 27C15.7225 27.0116 15.7383 24.4159 15.7383 21.2315V15.4419L13.3658 14.2722C12.061 13.6288 10.9742 13.0954 10.9507 13.0868C10.9257 13.0776 10.9081 13.7342 10.9081 14.6792C10.9081 16.2219 10.904 16.2955 10.8086 16.4928C10.569 16.988 9.87886 17.1321 9.46942 16.7724C9.12544 16.4702 9.12839 16.4922 9.12586 14.2052L9.12361 12.164L6.95591 11.099C5.76368 10.5133 4.75126 10.0201 4.70614 10.003C4.6283 9.9735 4.62412 10.25 4.62511 15.4085ZM23.0775 12.7026L17.5907 15.4162L17.562 17.5206C17.5462 18.678 17.5304 21.2773 17.5268 23.2969C17.5217 26.2083 17.5325 26.968 17.579 26.9651C17.6112 26.9631 20.1066 25.6694 23.1244 24.0902L28.6111 21.2189L28.623 15.6004C28.6296 12.5103 28.6191 9.98354 28.5996 9.98547C28.5801 9.98739 26.0952 11.2101 23.0775 12.7026Z" fill="#B1404B"/>
</g>
<defs>
<filter id="filter0_d_2_152" x="-2.375" y="0" width="38" height="38" filterUnits="userSpaceOnUse" color-interpolation-filters="sRGB">
<feFlood flood-opacity="0" result="BackgroundImageFix"/>
<feColorMatrix in="SourceAlpha" type="matrix" values="0 0 0 0 0 0 0 0 0 0 0 0 0 0 0 0 0 0 127 0" result="hardAlpha"/>
<feOffset dy="4"/>
<feGaussianBlur stdDeviation="2"/>
<feComposite in2="hardAlpha" operator="out"/>
<feColorMatrix type="matrix" values="0 0 0 0 0 0 0 0 0 0 0 0 0 0 0 0 0 0 0.25 0"/>
<feBlend mode="normal" in2="BackgroundImageFix" result="effect1_dropShadow_2_152"/>
<feBlend mode="normal" in="SourceGraphic" in2="effect1_dropShadow_2_152" result="shape"/>
</filter>
</defs>
</svg>
